<svg width="175" height="114" viewBox="0 0 175 114" fill="none" xmlns="http://www.w3.org/2000/svg">
    <path d="M62 3.00001L113.604 3" stroke="#074FEB" stroke-width="4.39185" stroke-linecap="round" />
    <path
        d="M92.4473 23.4343C91.5897 22.5768 91.5897 21.1864 92.4473 20.3288C93.3048 19.4713 94.6952 19.4713 95.5528 20.3288L92.4473 23.4343ZM106.078 33.9597L107.631 32.4069C108.488 33.2645 108.488 34.6549 107.631 35.5124L106.078 33.9597ZM94 21.8816L95.5528 20.3288L107.631 32.4069L106.078 33.9597L104.525 35.5124L92.4473 23.4343L94 21.8816ZM106.078 33.9597L107.631 35.5124L95.5528 47.5905L94 46.0378L92.4473 44.485L104.525 32.4069L106.078 33.9597Z"
        fill="#074FEB" />
    <path d="M3 17.4899H172.086" stroke="#074FEB" stroke-width="4.39185" stroke-linecap="round" />
    <rect x="62" y="12.0001" width="51.6042" height="9.88166" fill="#074FEB" stroke="#074FEB" stroke-width="3.29389"
        stroke-linejoin="round" />
    <path
        d="M19.7071 84V49.2693H25.1354V84H19.7071ZM13.9625 61.6016V56.3313H31.5651V61.6016H13.9625ZM36.508 84V56.3313H41.989V65.0272L41.462 62.9191C41.8484 61.584 42.4984 60.3719 43.4119 59.2827C44.3606 58.1935 45.4322 57.3327 46.6268 56.7003C47.8565 56.0678 49.1213 55.7516 50.4213 55.7516C51.0186 55.7516 51.5808 55.8043 52.1078 55.9097C52.67 56.0151 53.1091 56.1381 53.4254 56.2786L52.0024 62.1813C51.5808 62.0056 51.1065 61.8651 50.5794 61.7597C50.0876 61.6191 49.5957 61.5489 49.1038 61.5489C48.1551 61.5489 47.2416 61.7421 46.3633 62.1286C45.52 62.4799 44.7646 62.9894 44.0971 63.657C43.4646 64.2894 42.9552 65.0448 42.5687 65.9231C42.1822 66.7664 41.989 67.6975 41.989 68.7164V84H36.508ZM104.599 84V56.3313H110.027V62.0232L109.078 62.6556C109.43 61.4259 110.115 60.3016 111.134 59.2827C112.153 58.2286 113.365 57.3854 114.77 56.753C116.176 56.0854 117.616 55.7516 119.092 55.7516C121.2 55.7516 122.957 56.1732 124.362 57.0165C125.767 57.8246 126.822 59.0719 127.524 60.7583C128.227 62.4448 128.578 64.5705 128.578 67.1353V84H123.15V67.5042C123.15 65.9231 122.939 64.6232 122.518 63.6043C122.096 62.5502 121.446 61.7948 120.568 61.3381C119.689 60.8462 118.6 60.6354 117.3 60.7056C116.246 60.7056 115.28 60.8813 114.401 61.2327C113.523 61.5489 112.75 62.0056 112.082 62.6029C111.45 63.2002 110.941 63.9029 110.554 64.711C110.203 65.484 110.027 66.3272 110.027 67.2407V84H107.339C106.883 84 106.426 84 105.969 84C105.512 84 105.056 84 104.599 84ZM140.323 96.1215L145.909 83.2095L145.962 87.531L132.154 56.3313H138.478L147.121 76.6744C147.297 77.0257 147.508 77.5703 147.754 78.3082C148 79.0109 148.21 79.7136 148.386 80.4163L147.016 80.7325C147.297 79.9946 147.56 79.2568 147.806 78.519C148.087 77.7811 148.351 77.0433 148.597 76.3055L155.817 56.3313H162.247L150.863 84L146.173 96.1215H140.323Z"
        fill="white" />
    <path
        d="M67.2259 84.527C64.9422 84.527 62.8516 83.8946 60.9544 82.6297C59.0922 81.3649 57.599 79.6433 56.4747 77.4649C55.3504 75.2866 54.7882 72.8271 54.7882 70.0866C54.7882 67.311 55.3504 64.8515 56.4747 62.7083C57.6341 60.53 59.18 58.8259 61.1125 57.5962C63.08 56.3665 65.2759 55.7516 67.7002 55.7516C69.1408 55.7516 70.4583 55.9624 71.6529 56.384C72.8475 56.8057 73.884 57.403 74.7623 58.1759C75.6758 58.9138 76.4137 59.7746 76.9758 60.7583C77.5731 61.7421 77.942 62.7962 78.0826 63.9205L76.8704 63.4988V56.3313H82.3514V84H76.8704V77.4122L78.1353 77.0433C77.9245 77.992 77.4853 78.923 76.8177 79.8365C76.1853 80.7149 75.3596 81.5054 74.3407 82.2081C73.3569 82.9108 72.2502 83.473 71.0205 83.8946C69.8259 84.3162 68.561 84.527 67.2259 84.527ZM68.6489 79.5203C70.3002 79.5203 71.7583 79.1163 73.0232 78.3082C74.288 77.5001 75.2718 76.3933 75.9745 74.9879C76.7123 73.5474 77.0812 71.9136 77.0812 70.0866C77.0812 68.2947 76.7123 66.6961 75.9745 65.2907C75.2718 63.8853 74.288 62.7786 73.0232 61.9705C71.7583 61.1624 70.3002 60.7583 68.6489 60.7583C67.0327 60.7583 65.5921 61.1624 64.3273 61.9705C63.0976 62.7786 62.1138 63.8853 61.376 65.2907C60.6733 66.6961 60.3219 68.2947 60.3219 70.0866C60.3219 71.9136 60.6733 73.5474 61.376 74.9879C62.1138 76.3933 63.0976 77.5001 64.3273 78.3082C65.5921 79.1163 67.0327 79.5203 68.6489 79.5203ZM90.8266 84V56.3313H96.2549V84H90.8266ZM93.4617 50.2179C92.3023 50.2179 91.4063 49.9192 90.7739 49.322C90.1415 48.7247 89.8253 47.8814 89.8253 46.7923C89.8253 45.7733 90.1415 44.9477 90.7739 44.3152C91.4415 43.6828 92.3374 43.3666 93.4617 43.3666C94.6212 43.3666 95.5171 43.6653 96.1495 44.2625C96.782 44.8598 97.0982 45.7031 97.0982 46.7923C97.0982 47.8112 96.7644 48.6368 96.0968 49.2693C95.4644 49.9017 94.586 50.2179 93.4617 50.2179Z"
        fill="#3BFFFC" />
    <path d="M3 98H172.086" stroke="#074FEB" stroke-width="4.39185" stroke-linecap="round" />
    <path d="M23.2741 113.274C31.1575 113.274 37.5482 106.883 37.5482 99H9C9 106.883 15.3907 113.274 23.2741 113.274Z"
        fill="#074FEB" />
    <path
        d="M65.3332 113.274C73.2166 113.274 79.6073 106.883 79.6073 99H51.0591C51.0591 106.883 57.4498 113.274 65.3332 113.274Z"
        fill="#074FEB" />
    <path
        d="M151.333 113.274C159.217 113.274 165.607 106.883 165.607 99H137.059C137.059 106.883 143.45 113.274 151.333 113.274Z"
        fill="#074FEB" />
    <path
        d="M108.333 113.274C116.217 113.274 122.607 106.883 122.607 99H94.0591C94.0591 106.883 100.45 113.274 108.333 113.274Z"
        fill="#074FEB" />
</svg>